<svg xmlns="http://www.w3.org/2000/svg" viewBox="0 0 200 200">
  <!-- Magnifying glass elements -->
  <path d="M140 140 L 180 180" stroke="#2D3748" stroke-width="12" stroke-linecap="round"/>
  <circle cx="100" cy="100" r="60" fill="none" stroke="#2D3748" stroke-width="12"/>
  <circle cx="100" cy="100" r="54" fill="#E2E8F0"/>
  
  <!-- Training loss (goes lower) -->
  <path d="M60 75 
           C 70 85, 75 95, 85 100
           C 95 105, 100 110, 110 112
           C 120 114, 125 115, 140 125" 
        fill="none" stroke="#4299E1" stroke-width="3"/>
  
  <!-- Validation loss (stays higher) -->
  <path d="M60 75 
           C 70 80, 75 85, 85 95
           C 95 105, 100 100, 110 102
           C 120 104, 125 95, 140 105" 
        fill="none" stroke="#F56565" stroke-width="3"/>
  
  <!-- Points on training curve -->
  <circle cx="85" cy="100" r="2" fill="#4299E1"/>
  <circle cx="110" cy="112" r="2" fill="#4299E1"/>
  <circle cx="140" cy="125" r="2" fill="#4299E1"/>
  
  <!-- Points on validation curve -->
  <circle cx="85" cy="95" r="2" fill="#F56565"/>
  <circle cx="110" cy="102" r="2" fill="#F56565"/>
  <circle cx="140" cy="105" r="2" fill="#F56565"/>
</svg>
