<svg xmlns="http://www.w3.org/2000/svg" viewBox="0 0 200 200">
  <!-- Magnifying glass elements -->
  <path d="M140 140 L 180 180" stroke="#2D3748" stroke-width="12" stroke-linecap="round"/>
  <circle cx="100" cy="100" r="60" fill="none" stroke="#2D3748" stroke-width="12"/>
  <circle cx="100" cy="100" r="54" fill="#E2E8F0"/>
  
  <!-- Training loss (goes lower, ending higher) -->
  <path d="M60 75 
           C 70 85, 75 95, 85 105
           C 95 115, 100 120, 110 125
           C 120 130, 125 128, 135 128" 
        fill="none" stroke="#4299E1" stroke-width="3"/>
  
  <!-- Validation loss (stays higher) -->
  <path d="M60 75 
           C 70 80, 75 85, 85 90
           C 95 95, 100 95, 110 98
           C 120 101, 125 95, 135 95" 
        fill="none" stroke="#F56565" stroke-width="3"/>
  
  <!-- Points on training curve -->
  <circle cx="85" cy="105" r="2" fill="#4299E1"/>
  <circle cx="110" cy="125" r="2" fill="#4299E1"/>
  <circle cx="135" cy="128" r="2" fill="#4299E1"/>
  
  <!-- Points on validation curve -->
  <circle cx="85" cy="90" r="2" fill="#F56565"/>
  <circle cx="110" cy="98" r="2" fill="#F56565"/>
  <circle cx="135" cy="95" r="2" fill="#F56565"/>
  
  <!-- Bidirectional arrow showing gap (shortened) -->
  <path d="M125 103 L 125 120" stroke="#2D3748" stroke-width="1.5"/>
  <!-- Arrow heads (shortened) -->
  <path d="M125 100 l -3 6 l 6 0 z" fill="#2D3748"/>
  <path d="M125 125 l -3 -6 l 6 0 z" fill="#2D3748"/>
</svg>
