<svg xmlns="http://www.w3.org/2000/svg" viewBox="0 0 200 200">
  <!-- Magnifying glass handle -->
  <path d="M140 140 L 180 180" stroke="#2D3748" stroke-width="12" stroke-linecap="round"/>
  
  <!-- Magnifying glass rim -->
  <circle cx="100" cy="100" r="60" fill="none" stroke="#2D3748" stroke-width="12"/>
  
  <!-- Glass lens -->
  <circle cx="100" cy="100" r="54" fill="#E2E8F0"/>
  
  <!-- Split line -->
  <line x1="60" y1="100" x2="140" y2="100" stroke="#2D3748" stroke-width="2" stroke-dasharray="4"/>
  
  <!-- Upper region (Sample 1) -->
  <!-- Training points -->
  <circle cx="75" cy="75" r="4" fill="#4299E1"/>
  <circle cx="90" cy="80" r="4" fill="#4299E1"/>
  <circle cx="105" cy="70" r="4" fill="#4299E1"/>
  <circle cx="120" cy="85" r="4" fill="#4299E1"/>
  <circle cx="85" cy="65" r="4" fill="#4299E1"/>
  
  <!-- Test points -->
  <circle cx="80" cy="85" r="4" fill="#F56565"/>
  <circle cx="100" cy="80" r="4" fill="#F56565"/>
  <circle cx="115" cy="75" r="4" fill="#F56565"/>
  
  <!-- Lower region (Sample 2) -->
  <!-- Training points -->
  <circle cx="75" cy="125" r="4" fill="#4299E1"/>
  <circle cx="90" cy="120" r="4" fill="#4299E1"/>
  <circle cx="105" cy="130" r="4" fill="#4299E1"/>
  <circle cx="120" cy="115" r="4" fill="#4299E1"/>
  <circle cx="85" cy="135" r="4" fill="#4299E1"/>
  
  <!-- Test points -->
  <circle cx="80" cy="115" r="4" fill="#F56565"/>
  <circle cx="100" cy="120" r="4" fill="#F56565"/>
  <circle cx="115" cy="125" r="4" fill="#F56565"/>
</svg>
