<svg xmlns="http://www.w3.org/2000/svg" viewBox="0 0 200 200">
  <!-- Magnifying glass elements -->
  <path d="M140 140 L 180 180" stroke="#2D3748" stroke-width="12" stroke-linecap="round"/>
  <circle cx="100" cy="100" r="60" fill="none" stroke="#2D3748" stroke-width="12"/>
  <circle cx="100" cy="100" r="54" fill="#E2E8F0"/>
  
  <!-- Divider between regions -->
  <path d="M70 70 L 130 130" stroke="#2D3748" stroke-width="3"/>
  
  <!-- Data points in upper region (test) -->
  <circle cx="105" cy="85" r="3" fill="#F56565"/>
  <circle cx="115" cy="80" r="3" fill="#F56565"/>
  <circle cx="125" cy="85" r="3" fill="#F56565"/>
  <circle cx="110" cy="90" r="3" fill="#F56565"/>
  <circle cx="120" cy="95" r="3" fill="#F56565"/>
  <circle cx="130" cy="90" r="3" fill="#F56565"/>
  <circle cx="108" cy="75" r="3" fill="#F56565"/>
  <circle cx="118" cy="87" r="3" fill="#F56565"/>
  
  <!-- Data points in lower region (train) -->
  <circle cx="75" cy="110" r="3" fill="#4299E1"/>
  <circle cx="85" cy="120" r="3" fill="#4299E1"/>
  <circle cx="90" cy="115" r="3" fill="#4299E1"/>
  <circle cx="80" cy="125" r="3" fill="#4299E1"/>
  <circle cx="95" cy="125" r="3" fill="#4299E1"/>
  <circle cx="70" cy="115" r="3" fill="#4299E1"/>
  <circle cx="85" cy="105" r="3" fill="#4299E1"/>
  <circle cx="95" cy="110" r="3" fill="#4299E1"/>
  
  <!-- Leaking dots (just a few, semi-transparent) -->
  <circle cx="95" cy="102" r="2.5" fill="#F56565" opacity="0.6"/>
  <circle cx="100" cy="105" r="2.5" fill="#F56565" opacity="0.6"/>
  <circle cx="105" cy="108" r="2.5" fill="#F56565" opacity="0.6"/>
</svg>
