<svg xmlns="http://www.w3.org/2000/svg" viewBox="0 0 200 200">
  <!-- Magnifying glass handle -->
  <path d="M140 140 L 180 180" stroke="#2D3748" stroke-width="12" stroke-linecap="round"/>
  
  <!-- Magnifying glass rim -->
  <circle cx="100" cy="100" r="60" fill="none" stroke="#2D3748" stroke-width="12"/>
  
  <!-- Glass lens -->
  <circle cx="100" cy="100" r="54" fill="#E2E8F0"/>
  
  <!-- Different candidate decision boundaries -->
  <line x1="60" y1="70" x2="140" y2="130" stroke="#2D3748" stroke-width="1.5" stroke-opacity="0.7" stroke-dasharray="4"/>
  <line x1="60" y1="140" x2="140" y2="60" stroke="#2D3748" stroke-width="1.5" stroke-opacity="0.7" stroke-dasharray="4"/>
  <line x1="140" y1="90" x2="60" y2="110" stroke="#2D3748" stroke-width="1.5" stroke-opacity="0.7" stroke-dasharray="4"/>
  
  <!-- Mixed points -->
  <!-- Blue points spread across -->
  <circle cx="75" cy="75" r="3" fill="#4299E1"/>
  <circle cx="95" cy="125" r="3" fill="#4299E1"/>
  <circle cx="115" cy="85" r="3" fill="#4299E1"/>
  <circle cx="85" cy="105" r="3" fill="#4299E1"/>
  <circle cx="125" cy="115" r="3" fill="#4299E1"/>
  <circle cx="70" cy="95" r="3" fill="#4299E1"/>
  <circle cx="110" cy="70" r="3" fill="#4299E1"/>
  <circle cx="130" cy="90" r="3" fill="#4299E1"/>
  
  <!-- Red points spread across -->
  <circle cx="80" cy="120" r="3" fill="#F56565"/>
  <circle cx="100" cy="80" r="3" fill="#F56565"/>
  <circle cx="120" cy="100" r="3" fill="#F56565"/>
  <circle cx="90" cy="95" r="3" fill="#F56565"/>
  <circle cx="105" cy="115" r="3" fill="#F56565"/>
  <circle cx="130" cy="75" r="3" fill="#F56565"/>
  <circle cx="75" cy="85" r="3" fill="#F56565"/>
  <circle cx="115" cy="125" r="3" fill="#F56565"/>
</svg>